<?xml version="1.0" standalone="no"?>
<!DOCTYPE svg PUBLIC "-//W3C//DTD SVG 20010904//EN"
 "http://www.w3.org/TR/2001/REC-SVG-20010904/DTD/svg10.dtd">
<svg version="1.0" xmlns="http://www.w3.org/2000/svg"
 width="260.000000pt" height="260.000000pt" viewBox="0 0 260.000000 260.000000"
 preserveAspectRatio="xMidYMid meet">
<metadata>
Created by potrace 1.11, written by Peter Selinger 2001-2013
</metadata>
<g transform="translate(0.000000,260.000000) scale(0.100000,-0.100000)"
fill="#000000" stroke="none">
<path d="M915 2568 c-18 -26 -75 -198 -75 -227 0 -20 -40 -31 -117 -31 -23 0
-53 -4 -66 -9 -41 -16 -68 -103 -92 -298 -25 -198 -30 -366 -29 -988 0 -492 4
-646 17 -795 10 -102 20 -193 23 -202 5 -17 48 -18 719 -18 l713 0 16 41 c49
122 71 559 56 1124 -5 204 -12 399 -14 435 -3 36 -8 106 -11 155 -23 359 -40
488 -69 521 -21 25 -85 46 -176 58 l-46 7 -28 94 c-31 101 -58 155 -79 155
-16 0 -40 -48 -78 -155 l-28 -80 -183 -7 c-101 -4 -212 -8 -248 -10 l-65 -3
-31 90 c-56 164 -76 189 -109 143z"/>
</g>
</svg>
