<!--CC-BY-SA 4.0 http://creativecommons.org/licenses/by-sa/4.0/ -->
<svg xmlns="http://www.w3.org/2000/svg" xml:space="preserve" viewBox="0 0 2000 2000"><linearGradient id="a" x1=".5" x2="2000.5" y1=".5" y2="2000.5" gradientUnits="userSpaceOnUse"><stop offset="0" stop-color="#c8c8c8"/><stop offset="1" stop-color="#919191"/></linearGradient><linearGradient id="b" x1="0" x2="2001" y1="1000.5" y2="1000.5" gradientUnits="userSpaceOnUse"><stop offset="0" stop-color="#fff"/><stop offset="1"/></linearGradient><path fill="url(#a)" stroke="url(#b)" stroke-miterlimit="10" d="M1 1h2000v2000H1z"/><path stroke="#000" stroke-miterlimit="10" d="M695 291c-13 17-24-6-35-10-2 0 1-7 2-11 15-42 34-84 57-124 8-14 17-29 29-41 9-11 15-10 19 1l2 6c14 47 23 97 28 148 1 9 1 8 4 16 3 7-7 10 0 9m489 25c4 20 24-1 36-2 2-1 3-8 4-13 7-46 10-91 10-137 0-16-1-33-5-48-4-12-9-13-18-3l-5 5c-35 46-68 94-97 145-5 9-5 8-11 15-7 7 1 12-5 10"/><linearGradient id="c" x1="995" x2="995" y1="261.5" y2="2000" gradientUnits="userSpaceOnUse"><stop offset="0" stop-color="#fff"/><stop offset=".5" stop-color="#c8c8c8"/></linearGradient><path fill="url(#c)" d="M423 2000h1087c118-1 99-1458 22-1661-36-95-526-76-526-76s-471-1-523 54c-115 120-95 1685-60 1683z"/><g fill-rule="evenodd" clip-rule="evenodd"><path d="M1347 1999c0-418 12-757 27-757s26 339 26 757v1h-53v-1zm-109-1c0-358 12-648 26-648s26 290 26 648v2h-52v-2zm-507 0c0-358-12-648-26-648s-26 290-26 648v2h52v-2zm-109 1c0-419-12-759-26-759-15 0-27 340-27 759v1h53v-1z"/><ellipse cx="1260" cy="530" rx="25" ry="120"/><ellipse cx="745" cy="530" rx="25" ry="120"/><ellipse cx="996.5" cy="935.8" rx="592.8" ry="31.9"/><ellipse cx="975" cy="700" rx="17.5" ry="60"/></g></svg>