<?xml version="1.0" encoding="utf-8"?>
<!-- Generator: Adobe Illustrator 16.0.0, SVG Export Plug-In . SVG Version: 6.00 Build 0)  -->

<!-- This work is licensed under the Creative Commons Attribution-ShareAlike 4.0 International License.
	 To view a copy of this license, visit http://creativecommons.org/licenses/by-sa/4.0/
	 or send a letter to Creative Commons, PO Box 1866, Mountain View, CA 94042, USA. -->

<!DOCTYPE svg PUBLIC "-//W3C//DTD SVG 1.1//EN" "http://www.w3.org/Graphics/SVG/1.1/DTD/svg11.dtd">
<svg version="1.1" xmlns="http://www.w3.org/2000/svg" xmlns:xlink="http://www.w3.org/1999/xlink" x="0px" y="0px" width="2000px"
	 height="2000px" viewBox="0 0 2000 2000" enable-background="new 0 0 2000 2000" xml:space="preserve">
<title>Chair</title>
<desc>
	This is Chair, a user icon often used by atlas_core.
</desc>
<g id="Background_gradient">
	<linearGradient id="SVGID_1_" gradientUnits="userSpaceOnUse" x1="0.5005" y1="0.5005" x2="2000.5009" y2="2000.5009">
		<stop  offset="0" style="stop-color:#C8C8C8"/>
		<stop  offset="1" style="stop-color:#919191"/>
	</linearGradient>
	<linearGradient id="SVGID_2_" gradientUnits="userSpaceOnUse" x1="0" y1="1000.5" x2="2001" y2="1000.5">
		<stop  offset="0" style="stop-color:#FFFFFF"/>
		<stop  offset="1" style="stop-color:#000000"/>
	</linearGradient>
	<rect x="0.5" y="0.5" fill="url(#SVGID_1_)" stroke="url(#SVGID_2_)" stroke-miterlimit="10" width="2000" height="2000"/>
</g>
<g id="Base">
	<path id="Left_ear" stroke="#000000" stroke-miterlimit="10" d="M694.658,291.312c-13.153,16.9-23.615-6.272-34.319-9.904
		c-2.3-0.78,0.352-7.471,1.795-11.54c15.025-42.35,34.04-83.504,56.572-123.478c8.249-14.632,17.103-29.2,28.928-41.785
		c9.531-10.146,15.569-9.566,19.814,1.423c0.693,1.795,1.288,3.646,1.839,5.51c14.112,47.669,22.892,97.214,27.807,148.029
		c0.877,9.069,0.813,8.796,3.966,16.259c3.123,7.393-7.252,9.711-0.186,9.503"/>
	<path id="Right_ear" stroke="#000000" stroke-miterlimit="10" d="M1290.34,310.32c3.361,19.908,23.958-1.371,35.204-2.793
		c2.415-0.306,3.347-7.647,4.062-12.077c7.443-46.103,10.771-91.835,10.41-137.113c-0.132-16.574-0.833-33.211-5.131-48.465
		c-3.464-12.297-9.088-12.984-18.222-2.741c-1.493,1.673-2.926,3.424-4.325,5.197c-35.82,45.342-67.84,93.711-97.066,144.185
		c-5.214,9.009-5.023,8.745-11.466,15.644c-6.381,6.835,1.66,11.376-4.488,9.674"/>
	<linearGradient id="SVGID_3_" gradientUnits="userSpaceOnUse" x1="1000" y1="249.54" x2="999.9999" y2="2000.0005">
		<stop  offset="0" style="stop-color:#FFFFFF"/>
		<stop  offset="0.5" style="stop-color:#C8C8C8"/>
	</linearGradient>
	<path display="none" fill="url(#SVGID_3_)" d="M1597.807,1324.791c-4.269-69.263,1.188-138.553-4.172-207.453
		c-3.282-42.186-0.179-84.26-3.687-126.15c-2.792-33.344,1.679-66.782-2.243-99.751c-3.298-27.733-0.707-55.602-4.455-82.911
		c-2.94-21.431,0.146-43.134-3.995-63.817c-5.311-26.531,0.647-53.61-7.089-79.656c-0.283-0.954-0.462-2.002-0.377-2.981
		c2.488-28.505-2.643-56.789-5.4-84.852c-2.504-25.501-1.087-51.249-6.152-76.714c-3.083-15.497-3.086-31.769-5.181-47.668
		c-3.704-28.077-6.157-56.306-11.092-84.237c-2.037-11.53-4.099-23.056-6.155-34.582c-2.702-15.134-10.683-26.217-25.201-33.532
		c-31.311-15.777-64.938-23.55-99.555-28.374c-9.281-1.293-18.545-2.719-27.788-4.251c-7.238-1.198-158.267-28.895-376.265-13.861
		l-489.917,34.221c-20.134-0.62-33.624,8.366-42.604,25.131c-16.481,30.769-23.181,64.43-30.827,97.691
		c-8.772,38.167-12.972,77.066-17.673,115.879c-3.573,29.5-5.788,59.063-8.34,88.633C416.224,655.128,410.82,693.484,407.5,733
		c-2.222,26.422-3.734,50.771-3.734,78c0,44,1.377,86.45-0.354,128.497c-0.481,11.671,1.236,23.235,0.67,35.015
		c-6.285,130.653-4.077,261.448-1.531,392.069c1.199,61.437-1.179,123.099,3.755,184.323c2.507,31.103-0.074,62.31,4.022,92.946
		c3.49,26.104,1.177,52.135,3.902,77.952c3.959,37.498,4.939,75.173,8.587,112.607c2.94,30.172,3.467,60.604,8.325,90.517
		c3.365,20.717,5.116,41.752,10.881,62.122c1.162,4.104,2.163,12.951,8.038,12.951c364.328,0,710.609,0,1074.937,0
		c4.252-2.917,10.127-5.958,13.176-11.447c16.801-30.249,25.083-62.146,31.04-95.087c4.813-26.612,9.569-53.369,11.66-80.254
		c1.449-18.646,5.59-37.06,5.308-55.792c-0.549-36.112,2.493-72.255,5.46-108.004c3.891-46.9-0.7-93.724,3.369-140.278
		C1600.385,1447.663,1601.577,1385.991,1597.807,1324.791z"/>
	<linearGradient id="Smoother_Body_1_" gradientUnits="userSpaceOnUse" x1="995.0024" y1="261.4624" x2="995.0024" y2="2000.0024">
		<stop  offset="0" style="stop-color:#FFFFFF"/>
		<stop  offset="0.5" style="stop-color:#C8C8C8"/>
	</linearGradient>
	<path id="Smoother_Body" fill="url(#Smoother_Body_1_)" d="M422.997,2000c2.761-0.159,1087.003,0,1087.003,0
		c118-1,99-1458.329,22-1661c-36.281-95.497-525.91-75.873-525.91-75.873s-471.388-1.146-523.473,53.654
		C368.241,437.119,388.286,2002,422.997,2000z"/>
</g>
<g id="Limbs">
	<g id="Right_Leg">
		<path id="Right" fill-rule="evenodd" clip-rule="evenodd" d="M1347,1999.049c0-418.054,11.881-756.952,26.5-756.952
			s26.5,338.898,26.5,756.952c0,0.053,0-0.046,0,0.951h-53C1347,1999.003,1347,1999.102,1347,1999.049z"/>
		<path id="Left" fill-rule="evenodd" clip-rule="evenodd" d="M1238,1998.134c0-357.764,11.755-647.789,26-647.789
			s26,290.025,26,647.789c0,0.336,0-0.134,0,1.866h-52C1238,1998,1238,1998.47,1238,1998.134z"/>
	</g>
	<g id="Left_Leg_1_">
		<path id="Right_1_" fill-rule="evenodd" clip-rule="evenodd" d="M731,1998.134c0-357.764-11.755-647.789-26-647.789
			s-26,290.025-26,647.789c0,0.336,0-0.134,0,1.866h52C731,1998,731,1998.47,731,1998.134z"/>
		<path id="Left_1_" fill-rule="evenodd" clip-rule="evenodd" d="M622,1999.046c0-419.156-11.881-758.949-26.5-758.949
			c-14.619,0-26.5,339.793-26.5,758.949c0,0.054,0-0.046,0,0.954h53C622,1999,622,1999.1,622,1999.046z"/>
	</g>
	<ellipse id="Right_Eye" fill-rule="evenodd" clip-rule="evenodd" cx="1260" cy="530" rx="25" ry="120"/>
	<ellipse id="Left_Eye" fill-rule="evenodd" clip-rule="evenodd" cx="745" cy="530" rx="25" ry="120"/>
	<ellipse id="New_Neck" fill-rule="evenodd" clip-rule="evenodd" cx="996.546" cy="935.831" rx="592.78" ry="31.948"/>
	<ellipse id="Nose" fill-rule="evenodd" clip-rule="evenodd" cx="975" cy="700" rx="17.5" ry="60"/>
</g>
</svg>
